<?xml version="1.0" encoding="utf-8"?>
<!-- Generator: Adobe Illustrator 26.0.1, SVG Export Plug-In . SVG Version: 6.00 Build 0)  -->
<svg version="1.1" id="Layer_1" xmlns="http://www.w3.org/2000/svg" xmlns:xlink="http://www.w3.org/1999/xlink" x="0px" y="0px"
	 viewBox="0 0 50 50" style="enable-background:new 0 0 50 50;" xml:space="preserve">
<style type="text/css">
	.st0{fill:url(#SVGID_1_);}
	.st1{fill:url(#SVGID_00000102516982974405830480000015445037264175787153_);}
	.st2{fill:#FF1273;}
	.st3{fill:#FFFFFF;}
</style>
<path d="M-38.9,101.6c2-0.4,3.9-0.7,5.9-0.7c4,0,7.4,0.9,10.2,2.9c2.7,1.9,4.1,4.9,4,8.9l-0.1,21h-8.6l0.1-20.9c0-1.3-0.5-2.3-1.5-3
	c-1-0.7-2.1-1-3.5-1c-1.3,0-2.5,0.2-3.4,0.7l-0.1,24.2h-8.6l0.1-30.1C-42.7,102.7-40.9,102.1-38.9,101.6z"/>
<path d="M0.4,126.8c0.7,0,1.4-0.1,2.1-0.2v7.1c-1.3,0.4-2.7,0.7-4.2,0.7c-3.3,0-5.9-1-7.9-3s-3-4.9-3-8.8l0.1-28.4h7.9l0.6,7.4h5.8
	v7.5H-4l-0.1,13.1C-4.2,125.3-2.6,126.8,0.4,126.8z"/>
<path d="M42.6,102c2-0.4,3.9-0.7,5.9-0.7c4,0,7.4,0.9,10.2,2.9c2.7,1.9,4.1,4.9,4,8.9l-0.1,21H54l0.1-20.9c0-1.3-0.5-2.3-1.5-3
	c-1-0.7-2.1-1-3.5-1c-1.3,0-2.5,0.2-3.4,0.7L45.6,134H37l0.1-30.1C38.8,103.1,40.6,102.5,42.6,102z"/>
<path d="M74.7,133.5c-2-0.8-3.5-2.1-4.8-3.8c-1.2-1.7-1.8-3.8-1.8-6.3v-10.7c0-2.4,0.6-4.5,1.9-6.2c1.2-1.7,2.8-3,4.8-3.9
	s4.1-1.3,6.3-1.3c2.7,0,5.2,0.7,7.5,2.1c2.3,1.4,3.8,3.6,4.7,6.6l-7.5,2.5c-0.3-1.2-0.8-2-1.7-2.6c-0.8-0.6-1.8-0.9-2.9-0.9
	c-1.2,0-2.3,0.3-3.2,0.9c-0.9,0.6-1.4,1.5-1.4,2.6v10.9c0,1.1,0.4,1.9,1.3,2.6c0.9,0.6,1.9,1,3.1,1c1.1,0,2.1-0.3,3-0.9
	s1.5-1.4,1.9-2.5l7.7,2.2c-1,3.1-2.6,5.3-5,6.7c-2.4,1.4-4.9,2.1-7.6,2.1C78.8,134.8,76.7,134.4,74.7,133.5z"/>
<linearGradient id="SVGID_1_" gradientUnits="userSpaceOnUse" x1="108.8716" y1="32.2195" x2="127.5853" y2="32.2195">
	<stop  offset="0" style="stop-color:#34A0BD"/>
	<stop  offset="0.4744" style="stop-color:#8884F9"/>
	<stop  offset="1" style="stop-color:#ED404C"/>
</linearGradient>
<path class="st0" d="M127.6,34.7v-6.4c0-1.8-0.4-3.4-1.3-4.6c-0.9-1.3-2-2.1-3.4-2.8s-2.9-1-4.5-1c-1.6,0-3.2,0.3-4.6,0.9
	c-1.5,0.7-2.7,1.5-3.5,2.8c-1,1.3-1.4,2.8-1.4,4.6v7.9c0,1.8,0.4,3.3,1.3,4.6c0.9,1.3,2.1,2.2,3.5,2.9c1.5,0.6,3,1,4.6,1
	c1.6,0,3.2-0.4,4.7-1.1c1.5-0.7,2.8-1.8,3.8-3.4l-4.2-2.9c-0.4,0.7-1,1.2-1.7,1.5c-0.7,0.3-1.5,0.4-2.3,0.4c-1,0-1.9-0.3-2.7-0.8
	c-0.7-0.5-1.1-1.3-1.1-2.2v-1.3H127.6z M115,28.2c0-0.9,0.3-1.5,1-2.1c0.7-0.4,1.5-0.7,2.4-0.8c1,0,1.8,0.3,2.4,0.7
	c0.7,0.4,1,1.1,1,2v2H115V28.2z"/>
<linearGradient id="SVGID_00000124152018415206480720000001019868449658249110_" gradientUnits="userSpaceOnUse" x1="134.6363" y1="32.2195" x2="153.35" y2="32.2195">
	<stop  offset="0" style="stop-color:#34A0BD"/>
	<stop  offset="0.4744" style="stop-color:#8884F9"/>
	<stop  offset="1" style="stop-color:#ED404C"/>
</linearGradient>
<path style="fill:url(#SVGID_00000124152018415206480720000001019868449658249110_);" d="M153.4,34.7v-6.4c0-1.8-0.4-3.4-1.3-4.6
	c-0.9-1.3-2-2.1-3.4-2.8c-1.4-0.7-2.9-1-4.5-1c-1.6,0-3.2,0.3-4.6,0.9c-1.5,0.7-2.7,1.5-3.5,2.8c-1,1.3-1.4,2.8-1.4,4.6v7.9
	c0,1.8,0.4,3.3,1.3,4.6c0.9,1.3,2.1,2.2,3.5,2.9c1.5,0.6,3,1,4.6,1c1.6,0,3.2-0.4,4.7-1.1s2.8-1.8,3.8-3.4l-4.2-2.9
	c-0.4,0.7-1,1.2-1.7,1.5c-0.7,0.3-1.5,0.4-2.3,0.4c-1,0-1.9-0.3-2.7-0.8c-0.7-0.5-1.1-1.3-1.1-2.2v-1.3H153.4z M140.8,28.2
	c0-0.9,0.3-1.5,1-2.1c0.7-0.4,1.5-0.7,2.4-0.8c1,0,1.8,0.3,2.4,0.7c0.7,0.4,1,1.1,1,2v2h-6.9V28.2z"/>
<path d="M131.3,104.8c2.4-2.1,5.4-3.1,9.1-3.1c1.4,0,3,0.2,4.5,0.6v7.6c-0.9-0.3-1.8-0.5-2.7-0.5c-1.6,0-2.9,0.4-4.1,1.2
	c-1.1,0.8-1.7,1.9-1.7,3.3l-0.1,20.5h-8.6l0.1-20.9C127.8,109.7,129,106.8,131.3,104.8z"/>
<path class="st2" d="M47.7,31.5l1.1-9c0.3-2.6,0-4.8-1-6.7c-1-1.9-2.4-3.3-4.3-4.5c-1.9-1.2-3.9-1.8-6.2-2.1C35,8.8,32.8,9,30.6,9.6
	c-2.2,0.7-4,1.7-5.4,3.4c-1.6,1.6-2.4,3.7-2.7,6.3l-1.3,11.1c-0.3,2.5,0.1,4.7,1.1,6.7c1,1.9,2.5,3.5,4.5,4.6c2,1.1,4.1,1.9,6.4,2.1
	c2.3,0.3,4.5,0,6.8-0.8c2.3-0.8,4.2-2.1,5.9-4.1L40.4,34c-0.7,0.9-1.5,1.5-2.6,1.8c-1,0.3-2.1,0.4-3.3,0.2c-1.5-0.2-2.6-0.7-3.6-1.6
	c-1-0.8-1.3-1.9-1.2-3.3l0.2-1.8L47.7,31.5z M31,20.3c0.1-1.2,0.7-2.1,1.8-2.7c1.1-0.6,2.3-0.8,3.6-0.7c1.3,0.2,2.4,0.7,3.3,1.4
	c1,0.7,1.3,1.7,1.1,3l-0.3,2.8l-9.8-1.1L31,20.3z"/>
<g>
	<path class="st3" d="M10.9,43.1C8.5,42.4,6.4,41,4.6,39l4.3-5.8c1.1,1,2.5,1.7,3.9,2.1c1.4,0.4,2.8,0.5,4,0.3
		c1-0.2,1.9-0.5,2.4-1.1c0.6-0.5,0.8-1.3,0.7-2.2c-0.1-0.7-0.6-1.3-1.4-1.6c-0.8-0.3-1.7-0.6-2.9-0.5c-3.7,0.1-6.7-0.7-9-2.1
		c-2.4-1.5-3.8-3.8-4.3-6.8c-0.3-2-0.2-4,0.7-5.8c0.8-1.8,2-3.3,3.8-4.4s3.6-2,6-2.3c1.9-0.3,3.9-0.2,5.9,0.1
		c2.1,0.4,4.1,1.2,6.2,2.6L21,17.8c-1.2-0.6-2.3-0.9-3.5-1.1s-2.2-0.2-3.1,0c-1,0.2-1.9,0.5-2.4,1.1c-0.6,0.5-0.8,1.2-0.6,2.1
		c0.3,1.6,1.9,2.5,5.1,2.5c3.4,0.2,6.1,0.8,8.3,1.9c2.3,1.1,3.6,3.3,4.1,6.4c0.4,2.3,0.1,4.5-0.6,6.4s-2.1,3.4-3.9,4.6
		c-1.7,1.2-3.7,1.9-5.8,2.3C15.9,44,13.4,43.9,10.9,43.1z"/>
</g>
</svg>
