<?xml version="1.0" encoding="utf-8"?>
<!-- Generator: Adobe Illustrator 26.0.1, SVG Export Plug-In . SVG Version: 6.00 Build 0)  -->
<svg version="1.1" id="Layer_1" xmlns="http://www.w3.org/2000/svg" xmlns:xlink="http://www.w3.org/1999/xlink" x="0px" y="0px"
	 viewBox="0 0 23.4 35" style="enable-background:new 0 0 23.4 35;" xml:space="preserve">
<style type="text/css">
	.st0{fill:url(#SVGID_1_);}
</style>
<linearGradient id="SVGID_1_" gradientUnits="userSpaceOnUse" x1="0.6832" y1="17.5213" x2="22.6785" y2="17.5213">
	<stop  offset="0" style="stop-color:#34A0BD"/>
	<stop  offset="0.3077" style="stop-color:#8884F9"/>
	<stop  offset="0.7504" style="stop-color:#ED404C"/>
</linearGradient>
<path class="st0" d="M0.7,0.4c1.6,0,2.9,0.6,4.1,1.7c1.1,1.1,1.7,2.5,1.7,4.1V21c0,2.3,0.8,4.2,2.4,5.8c1.6,1.6,3.5,2.4,5.7,2.4h2.6
	c1.5,0,2.8,0.5,3.9,1.6c1.1,1.1,1.6,2.4,1.6,3.9h-8.1c-3.8,0-7.1-1.3-9.8-4C2,28,0.7,24.8,0.7,21V0.4z M10.7,13.2
	c-0.5,0.5-0.8,1.2-0.8,1.9s0.3,1.4,0.8,1.9c0.5,0.5,1.2,0.8,1.9,0.8h1.2c1.5,0,2.8-0.5,3.9-1.6c1.1-1.1,1.6-2.4,1.6-3.9h-6.7
	C11.9,12.4,11.2,12.6,10.7,13.2z"/>
</svg>
