<?xml version="1.0" encoding="utf-8"?>
<!-- Generator: Adobe Illustrator 26.0.1, SVG Export Plug-In . SVG Version: 6.00 Build 0)  -->
<svg version="1.1" id="Layer_1" xmlns="http://www.w3.org/2000/svg" xmlns:xlink="http://www.w3.org/1999/xlink" x="0px" y="0px"
	 viewBox="0 0 250 59.6" style="enable-background:new 0 0 250 59.6;" xml:space="preserve">
<style type="text/css">
	.st0{fill:#FFFFFF;}
	.st1{fill:#00E0C6;}
	.st2{fill:#016171;}
	.st3{fill:#009494;}
</style>
<g>
	<g>
		<path class="st0" d="M86.7,44.5c-2.4,1.4-5,2.1-7.9,2.1C74,46.6,70,45,67,41.9c-3.1-3.1-4.6-7-4.6-11.6c0-4.7,1.5-8.6,4.6-11.7
			C70,15.5,74,14,78.8,14c2.9,0,5.5,0.7,7.9,2.1c2.4,1.4,4.2,3.2,5.4,5.5l4.8-2.8c-1.8-3.1-4.3-5.6-7.5-7.4
			c-3.2-1.8-6.7-2.8-10.6-2.8c-6.3,0-11.6,2.1-15.7,6.3c-4.1,4.2-6.2,9.3-6.2,15.4c0,6.1,2.1,11.3,6.2,15.4
			c4.1,4.2,9.4,6.3,15.7,6.3c3.8,0,7.4-0.9,10.6-2.8c3.2-1.9,5.7-4.3,7.5-7.5L92,39C90.8,41.3,89.1,43.1,86.7,44.5z"/>
		<path class="st0" d="M102.8,7.6v43.7h5.2V7.6H102.8z"/>
		<path class="st0" d="M140.7,39.1c-0.7,3.4-2.9,5.7-6.6,7.1c-2.7,1-5.2,1.1-7.5,0.4c-2.3-0.7-4.2-2.2-5.6-4.6l23.5-8.7
			c-0.2-0.8-0.4-1.5-0.6-2.3c-1.5-4.1-4.1-7.1-7.8-9c-3.7-1.9-7.6-2.2-11.7-0.6c-4.3,1.6-7.4,4.3-9.1,8.1c-1.7,3.8-1.8,7.8-0.2,12.1
			c1.6,4.3,4.3,7.3,8.1,9c3.8,1.8,8,1.8,12.4,0.2c5.5-2,8.8-5.7,10-10.9L140.7,39.1z M120.5,30.6c1.2-2.1,3.1-3.7,5.7-4.6
			c2.2-0.8,4.5-0.9,6.7-0.1c2.2,0.8,4,2.4,5.4,4.9l-18.8,6.9C119,35.1,119.3,32.7,120.5,30.6z"/>
		<path class="st0" d="M181.6,13V8c-4.2-0.3-7.5,0.6-9.7,2.7c-2.2,2.1-3.4,5.1-3.4,9.2v1.5h-11.1v-0.9c0-5,2.6-7.3,7.9-6.8v-5
			c-4.2-0.3-7.5,0.6-9.7,2.7c-2.3,2.1-3.4,5.1-3.4,9.2v0.9h-4.8v5h4.8v24.9h5.2V26.3h11.1v24.9h5.2V26.3h7.8v-5h-7.8v-1.5
			C173.8,14.8,176.4,12.6,181.6,13z"/>
		<path class="st0" d="M209.2,25.1c-3.1-3-6.8-4.5-11.2-4.5c-4.4,0-8.1,1.5-11.2,4.5c-3.1,3-4.6,6.8-4.6,11.2
			c0,4.4,1.5,8.2,4.6,11.2c3.1,3,6.8,4.5,11.2,4.5c4.4,0,8.1-1.5,11.2-4.5c3.1-3,4.6-6.8,4.6-11.2C213.8,31.9,212.3,28.1,209.2,25.1
			z M205.6,43.9c-2,2-4.5,3.1-7.5,3.1c-3,0-5.4-1-7.5-3.1c-2-2-3.1-4.6-3.1-7.6c0-3,1-5.6,3.1-7.6c2-2,4.5-3.1,7.5-3.1
			c3,0,5.5,1,7.5,3.1c2,2,3.1,4.6,3.1,7.6C208.6,39.3,207.6,41.8,205.6,43.9z"/>
		<path class="st0" d="M243.3,23.9c-2.1-2.2-4.9-3.3-8.4-3.3c-4.3,0-7.6,1.7-9.7,5.1v-4.3H220v29.9h5.2V35.4c0-3.4,0.8-5.8,2.4-7.5
			c1.6-1.6,3.7-2.4,6.3-2.4c2.3,0,4.1,0.7,5.4,2c1.3,1.3,2,3.2,2,5.7v18.1h5.2V32.9C246.5,29.1,245.4,26.1,243.3,23.9z"/>
	</g>
	<g>
		<rect x="22.3" y="1.5" class="st1" width="18.8" height="18.8"/>
		<rect x="22.3" y="39.2" class="st2" width="18.8" height="18.8"/>
		<polygon class="st3" points="22.3,20.4 22.3,58.1 3.5,39.2 3.5,20.4 		"/>
	</g>
</g>
</svg>
