<?xml version="1.0" encoding="utf-8"?>
<!-- Generator: Adobe Illustrator 26.0.1, SVG Export Plug-In . SVG Version: 6.00 Build 0)  -->
<svg version="1.1" id="Layer_1" xmlns="http://www.w3.org/2000/svg" xmlns:xlink="http://www.w3.org/1999/xlink" x="0px" y="0px"
	 viewBox="0 0 253.3 38" style="enable-background:new 0 0 253.3 38;" xml:space="preserve">
<style type="text/css">
	.st0{fill:url(#SVGID_1_);}
</style>
<linearGradient id="SVGID_1_" gradientUnits="userSpaceOnUse" x1="1.4255" y1="19.0213" x2="251.8936" y2="19.0213">
	<stop  offset="0" style="stop-color:#34A0BD"/>
	<stop  offset="0.4744" style="stop-color:#8884F9"/>
	<stop  offset="1" style="stop-color:#ED404C"/>
</linearGradient>
<path class="st0" d="M15.5,19.5c0-3.2,1.1-5.9,3.4-8.2c2.3-2.2,5.1-3.4,8.3-3.4h8.5c0,1.6-0.6,3-1.7,4.2c-1.2,1.1-2.6,1.7-4.2,1.7
	h-1.3c-1.9,0-3.5,0.7-4.8,2c-1.3,1.4-2,3-2,4.9v5.1c0,3.2-1.1,5.9-3.4,8.2c-2.3,2.2-5,3.4-8.3,3.4H1.4c0-1.6,0.6-3,1.7-4.1
	s2.5-1.7,4.1-1.7h1.3c1.9,0,3.5-0.7,4.9-2c1.3-1.4,2-3,2-4.9V19.5z M51.3,37.4c-4.1,0-7.6-1.4-10.5-4.3c-2.9-2.9-4.4-6.3-4.4-10.4
	c0-4.1,1.5-7.6,4.4-10.4c2.9-2.9,6.4-4.3,10.5-4.3H60c0,1.6-0.6,3-1.7,4.1c-1.2,1.1-2.5,1.7-4.2,1.7h-2.8c-2.4,0-4.5,0.9-6.2,2.7
	c-1.7,1.8-2.5,3.9-2.5,6.3c0,2.4,0.8,4.5,2.5,6.2c1.7,1.7,3.7,2.6,6.2,2.6h2.8c1.6,0,3,0.6,4.2,1.7c1.2,1.1,1.7,2.5,1.7,4.1H51.3z
	 M49.2,19.7H60c0,1.6-0.6,3-1.7,4.2c-1.2,1.1-2.5,1.7-4.2,1.7h-4.9c-0.8,0-1.5-0.3-2.1-0.8c-0.6-0.6-0.8-1.2-0.8-2.1
	c0-0.8,0.3-1.5,0.8-2.1C47.7,20,48.4,19.7,49.2,19.7z M85.6,22.7c0-2.4-0.8-4.5-2.5-6.3c-1.7-1.8-3.7-2.7-6.2-2.7
	c-2.4,0-4.5,0.9-6.2,2.6c-1.7,1.8-2.5,3.9-2.5,6.3v8.5c0,1.7-0.6,3.2-1.8,4.4c-1.2,1.2-2.7,1.8-4.4,1.8V22.7c0-4.1,1.5-7.6,4.4-10.4
	c2.9-2.9,6.4-4.3,10.5-4.3c4.1,0,7.6,1.4,10.5,4.3c2.9,2.9,4.4,6.4,4.4,10.4v14.7c-1.7,0-3.2-0.6-4.4-1.8c-1.2-1.2-1.8-2.7-1.8-4.4
	V22.7z M94.6,0.6c1.7,0,3.2,0.6,4.4,1.8c1.2,1.2,1.8,2.7,1.8,4.4v15.9c0,2.4,0.8,4.5,2.5,6.2c1.7,1.7,3.7,2.6,6.2,2.6h2.8
	c1.6,0,3,0.6,4.2,1.7c1.2,1.1,1.7,2.5,1.7,4.1h-8.7c-4.1,0-7.6-1.4-10.5-4.3c-2.9-2.9-4.4-6.3-4.4-10.4V0.6z M105.4,14.3
	c-0.6,0.6-0.9,1.3-0.9,2.1c0,0.8,0.3,1.5,0.9,2.1c0.6,0.6,1.3,0.8,2.1,0.8h1.3c1.6,0,3-0.6,4.2-1.7c1.2-1.1,1.7-2.5,1.7-4.1h-7.2
	C106.6,13.5,105.9,13.8,105.4,14.3z M134,37.4c-4.1,0-7.6-1.4-10.5-4.3c-2.9-2.9-4.4-6.3-4.4-10.4c0-4.1,1.5-7.6,4.4-10.4
	c2.9-2.9,6.4-4.3,10.5-4.3h8.7c0,1.6-0.6,3-1.7,4.1c-1.2,1.1-2.5,1.7-4.2,1.7H134c-2.4,0-4.5,0.9-6.2,2.7c-1.7,1.8-2.5,3.9-2.5,6.3
	c0,2.4,0.8,4.5,2.5,6.2c1.7,1.7,3.7,2.6,6.2,2.6h2.8c1.6,0,3,0.6,4.2,1.7c1.2,1.1,1.7,2.5,1.7,4.1H134z M131.9,19.7h10.8
	c0,1.6-0.6,3-1.7,4.2c-1.2,1.1-2.5,1.7-4.2,1.7h-4.9c-0.8,0-1.5-0.3-2.1-0.8c-0.6-0.6-0.8-1.2-0.8-2.1c0-0.8,0.3-1.5,0.8-2.1
	C130.4,20,131.1,19.7,131.9,19.7z M168.3,22.7c0-2.4-0.8-4.5-2.5-6.3s-3.7-2.7-6.2-2.7c-2.4,0-4.5,0.9-6.2,2.6
	c-1.7,1.8-2.5,3.9-2.5,6.3v8.5c0,1.7-0.6,3.2-1.8,4.4c-1.2,1.2-2.7,1.8-4.4,1.8V22.7c0-4.1,1.5-7.6,4.4-10.4
	c2.9-2.9,6.4-4.3,10.5-4.3c4.1,0,7.6,1.4,10.5,4.3c2.9,2.9,4.4,6.4,4.4,10.4v14.7c-1.7,0-3.2-0.6-4.4-1.8c-1.2-1.2-1.8-2.7-1.8-4.4
	V22.7z M192.2,37.4c-4.1,0-7.6-1.4-10.5-4.3c-2.9-2.9-4.4-6.3-4.4-10.4c0-4.1,1.5-7.6,4.4-10.4c2.9-2.9,6.4-4.3,10.5-4.3h8.7
	c0,1.6-0.6,3-1.7,4.1c-1.1,1.1-2.5,1.7-4.1,1.7h-2.8c-2.4,0-4.5,0.9-6.2,2.6c-1.7,1.8-2.6,3.9-2.6,6.3s0.9,4.5,2.6,6.2
	c1.7,1.7,3.8,2.6,6.2,2.6h2.8c1.6,0,3,0.6,4.1,1.7c1.1,1.1,1.7,2.5,1.7,4.1H192.2z M217,37.4c-4.1,0-7.6-1.4-10.5-4.3
	c-2.9-2.9-4.4-6.3-4.4-10.4c0-4.1,1.5-7.6,4.4-10.4c2.9-2.9,6.4-4.3,10.5-4.3h8.7c0,1.6-0.6,3-1.7,4.1c-1.2,1.1-2.5,1.7-4.2,1.7H217
	c-2.4,0-4.5,0.9-6.2,2.7s-2.5,3.9-2.5,6.3c0,2.4,0.8,4.5,2.5,6.2c1.7,1.7,3.7,2.6,6.2,2.6h2.8c1.6,0,3,0.6,4.2,1.7
	c1.2,1.1,1.7,2.5,1.7,4.1H217z M215,19.7h10.8c0,1.6-0.6,3-1.7,4.2c-1.2,1.1-2.5,1.7-4.2,1.7H215c-0.8,0-1.5-0.3-2.1-0.8
	c-0.6-0.6-0.8-1.2-0.8-2.1c0-0.8,0.3-1.5,0.8-2.1C213.4,20,214.1,19.7,215,19.7z M234.5,31.2c0,1.7-0.6,3.2-1.8,4.4
	c-1.2,1.2-2.7,1.8-4.4,1.8V22.7c0-4.1,1.5-7.5,4.4-10.4c2.9-2.9,6.4-4.3,10.5-4.3h8.7c0,1.6-0.6,3-1.7,4.1s-2.5,1.7-4.1,1.7h-2.8
	c-2.4,0-4.5,0.9-6.2,2.6c-1.7,1.7-2.5,3.8-2.5,6.2V31.2z"/>
</svg>
