<?xml version="1.0" encoding="utf-8"?>
<!-- Generator: Adobe Illustrator 26.0.1, SVG Export Plug-In . SVG Version: 6.00 Build 0)  -->
<svg version="1.1" id="Layer_1" xmlns="http://www.w3.org/2000/svg" xmlns:xlink="http://www.w3.org/1999/xlink" x="0px" y="0px"
	 viewBox="0 0 253.3 43.1" style="enable-background:new 0 0 253.3 43.1;" xml:space="preserve">
<style type="text/css">
	.st0{fill:url(#SVGID_1_);}
</style>
<g>
	<path d="M7.9,39.4c-2.1-1.1-3.9-2.7-5.2-4.9l4.9-4.7c0.9,1.1,2,2,3.3,2.6c1.2,0.6,2.5,0.9,3.7,0.9c1,0,1.8-0.2,2.4-0.6
		c0.6-0.4,1-1.1,1-1.9c0-0.7-0.3-1.3-1-1.7s-1.5-0.8-2.6-0.9c-3.4-0.5-6.1-1.7-8-3.4c-2-1.8-2.9-4.1-2.9-7c0-1.9,0.5-3.7,1.6-5.2
		c1-1.5,2.4-2.7,4.2-3.5c1.8-0.8,3.7-1.3,5.9-1.2c1.8,0,3.6,0.4,5.4,1c1.9,0.7,3.6,1.8,5.3,3.4l-4.6,5.3c-1-0.7-2-1.2-3.1-1.6
		c-1.1-0.4-2-0.5-2.9-0.5c-1,0-1.8,0.2-2.4,0.6c-0.6,0.4-0.9,1-0.9,1.8c0,1.5,1.4,2.6,4.3,3.1c3.1,0.7,5.5,1.7,7.4,3.1
		c1.9,1.4,2.8,3.6,2.8,6.6c0,2.2-0.6,4.2-1.6,5.8s-2.5,2.8-4.3,3.6c-1.8,0.8-3.7,1.2-5.7,1.2C12.3,41,10,40.5,7.9,39.4z"/>
	<path d="M66.8,8.6c2-0.4,3.9-0.7,5.9-0.7c4,0,7.4,0.9,10.2,2.9c2.7,1.9,4.1,4.9,4,8.9l-0.1,21l-8.6,0l0.1-20.9c0-1.3-0.5-2.3-1.5-3
		c-1-0.7-2.1-1-3.5-1c-1.3,0-2.5,0.2-3.4,0.7l-0.1,24.2l-8.6,0l0.1-30.1C63,9.7,64.8,9.1,66.8,8.6z"/>
	<path d="M106.1,33.8c0.7,0,1.4-0.1,2.1-0.2l0,7.1c-1.3,0.4-2.7,0.7-4.2,0.7c-3.3,0-5.9-1-7.9-3c-2-2-3-4.9-3-8.8l0.1-28.4l7.9,0
		l0.6,7.4l5.8,0l0,7.5l-5.8,0l-0.1,13.1C101.5,32.3,103.1,33.8,106.1,33.8z"/>
	<path d="M148.3,9c2-0.4,3.9-0.7,5.9-0.7c4,0,7.4,0.9,10.2,2.9c2.7,1.9,4.1,4.9,4,8.9l-0.1,21l-8.6,0l0.1-20.9c0-1.3-0.5-2.3-1.5-3
		c-1-0.7-2.1-1-3.5-1c-1.3,0-2.5,0.2-3.4,0.7L151.3,41l-8.6,0l0.1-30.1C144.5,10.1,146.3,9.5,148.3,9z"/>
	<path d="M180.4,40.5c-2-0.8-3.5-2.1-4.8-3.8c-1.2-1.7-1.8-3.8-1.8-6.3l0-10.7c0-2.4,0.6-4.5,1.9-6.2c1.2-1.7,2.8-3,4.8-3.9
		c2-0.9,4.1-1.3,6.3-1.3c2.7,0,5.2,0.7,7.5,2.1s3.8,3.6,4.7,6.6l-7.5,2.5c-0.3-1.2-0.8-2-1.7-2.6c-0.8-0.6-1.8-0.9-2.9-0.9
		c-1.2,0-2.3,0.3-3.2,0.9c-0.9,0.6-1.4,1.5-1.4,2.6l0,10.9c0,1.1,0.4,1.9,1.3,2.6c0.9,0.6,1.9,1,3.1,1c1.1,0,2.1-0.3,3-0.9
		c0.9-0.6,1.5-1.4,1.9-2.5l7.7,2.2c-1,3.1-2.6,5.3-5,6.7c-2.4,1.4-4.9,2.1-7.6,2.1C184.5,41.8,182.4,41.4,180.4,40.5z"/>
	<linearGradient id="SVGID_1_" gradientUnits="userSpaceOnUse" x1="30.542" y1="24.8474" x2="228.3689" y2="24.8474">
		<stop  offset="0" style="stop-color:#34A0BD"/>
		<stop  offset="0.4744" style="stop-color:#8884F9"/>
		<stop  offset="1" style="stop-color:#ED404C"/>
	</linearGradient>
	<path class="st0" d="M38.7,27.8l0,1.7c0,1.3,0.5,2.3,1.5,3c1,0.7,2.2,1.1,3.6,1.1c1.1,0,2.2-0.2,3.1-0.6c1-0.4,1.7-1.1,2.3-2l5.7,4
		c-1.3,2.1-3,3.6-5.1,4.6c-2.1,1-4.2,1.5-6.4,1.5c-2.2,0-4.3-0.5-6.3-1.3c-2-0.9-3.6-2.2-4.8-3.9c-1.2-1.7-1.8-3.8-1.8-6.2l0-10.7
		c0-2.5,0.6-4.6,1.9-6.3c1.2-1.7,2.8-2.9,4.8-3.8c2-0.8,4.1-1.2,6.3-1.2c2.2,0,4.2,0.4,6.1,1.3c1.9,0.9,3.4,2.1,4.6,3.8
		c1.2,1.7,1.7,3.8,1.7,6.3l0,8.7L38.7,27.8z M40.2,16.3c-1,0.7-1.4,1.6-1.4,2.8l0,2.5l9.4,0l0-2.7c0-1.2-0.4-2.1-1.4-2.7
		c-0.9-0.6-2-1-3.3-1C42.3,15.3,41.2,15.6,40.2,16.3z M120.2,28.2l0,1.7c0,1.3,0.5,2.3,1.5,3c1,0.7,2.2,1.1,3.6,1.1
		c1.1,0,2.2-0.2,3.1-0.6c1-0.4,1.7-1.1,2.3-2l5.7,4c-1.3,2.1-3,3.6-5.1,4.6c-2.1,1-4.2,1.5-6.4,1.5c-2.2,0-4.3-0.5-6.3-1.3
		c-2-0.9-3.6-2.2-4.8-3.9c-1.2-1.7-1.8-3.8-1.8-6.2l0-10.7c0-2.5,0.6-4.6,1.9-6.3c1.2-1.7,2.8-2.9,4.8-3.8c2-0.8,4.1-1.2,6.3-1.2
		c2.2,0,4.2,0.4,6.1,1.3c1.9,0.9,3.4,2.1,4.6,3.8c1.2,1.7,1.7,3.8,1.7,6.3l0,8.7L120.2,28.2z M121.7,16.6c-1,0.7-1.4,1.6-1.4,2.8
		l0,2.5l9.4,0l0-2.7c0-1.2-0.4-2.1-1.4-2.7c-0.9-0.6-2-1-3.3-1C123.8,15.6,122.6,16,121.7,16.6z M211,28.6l0,1.7
		c0,1.3,0.5,2.3,1.5,3c1,0.7,2.2,1.1,3.6,1.1c1.1,0,2.2-0.2,3.1-0.6c1-0.4,1.7-1.1,2.3-2l5.7,4c-1.3,2.1-3,3.6-5.1,4.6
		c-2.1,1-4.2,1.5-6.4,1.5c-2.2,0-4.3-0.5-6.3-1.3c-2-0.9-3.6-2.2-4.8-3.9c-1.2-1.7-1.8-3.8-1.8-6.2l0-10.7c0-2.5,0.6-4.6,1.9-6.3
		c1.2-1.7,2.8-2.9,4.8-3.8c2-0.8,4.1-1.2,6.3-1.2c2.2,0,4.2,0.4,6.1,1.3c1.9,0.9,3.4,2.1,4.6,3.8c1.2,1.7,1.7,3.8,1.7,6.3l0,8.7
		L211,28.6z M212.5,17c-1,0.7-1.4,1.6-1.4,2.8l0,2.5l9.4,0l0-2.7c0-1.2-0.4-2.1-1.4-2.7c-0.9-0.6-2-1-3.3-1
		C214.6,16.1,213.5,16.4,212.5,17z"/>
	<path d="M237,11.8c2.4-2.1,5.4-3.1,9.1-3.1c1.4,0,3,0.2,4.5,0.6l0,7.6c-0.9-0.3-1.8-0.5-2.7-0.5c-1.6,0-2.9,0.4-4.1,1.2
		c-1.1,0.8-1.7,1.9-1.7,3.3L242,41.4l-8.6,0l0.1-20.9C233.5,16.7,234.7,13.8,237,11.8z"/>
</g>
</svg>
