<?xml version="1.0" encoding="utf-8"?>
<!-- Generator: Adobe Illustrator 26.0.1, SVG Export Plug-In . SVG Version: 6.00 Build 0)  -->
<svg version="1.1" id="Layer_1" xmlns="http://www.w3.org/2000/svg" xmlns:xlink="http://www.w3.org/1999/xlink" x="0px" y="0px"
	 viewBox="0 0 113 65.4" style="enable-background:new 0 0 113 65.4;" xml:space="preserve">
<style type="text/css">
	.st0{fill:url(#SVGID_1_);}
</style>
<linearGradient id="SVGID_1_" gradientUnits="userSpaceOnUse" x1="0.9362" y1="32.6809" x2="96.8029" y2="32.6809">
	<stop  offset="0" style="stop-color:#30A1B8"/>
	<stop  offset="0.2302" style="stop-color:#5B96E3"/>
	<stop  offset="0.5145" style="stop-color:#A578E4"/>
	<stop  offset="0.7643" style="stop-color:#F3528E"/>
	<stop  offset="1" style="stop-color:#EC3F49"/>
</linearGradient>
<path class="st0" d="M41.6,25c-4.2-4.5-9.2-6.7-15.2-6.7c-6.1,0-10.9,2.1-14.2,6.4V1.9H0.9v61.5h11.3v-5.2c3.3,4.3,8.1,6.4,14.2,6.4
	c5.9,0,11-2.2,15.2-6.7c4.2-4.5,6.3-10,6.3-16.5C47.9,35,45.8,29.5,41.6,25z M33.1,50.4c-2.3,2.3-5.2,3.5-8.7,3.5
	c-3.5,0-6.4-1.2-8.7-3.5c-2.3-2.3-3.4-5.3-3.4-8.9c0-3.6,1.1-6.6,3.4-8.9c2.3-2.3,5.2-3.5,8.7-3.5c3.5,0,6.4,1.2,8.7,3.5
	c2.3,2.3,3.5,5.3,3.5,8.9C36.6,45.1,35.4,48.1,33.1,50.4z M85.6,64.7c-9.3,0-16.9-3.1-22.9-9.2c-6-6.1-9-13.7-9-22.8
	c0-9.1,3-16.7,9-22.8c6-6.1,13.7-9.2,22.9-9.2c5.6,0,10.7,1.3,15.4,3.9c4.7,2.6,8.4,6.1,11,10.6l-10.5,6.1c-1.5-2.8-3.7-4.9-6.5-6.5
	c-2.8-1.6-6-2.3-9.5-2.3c-6,0-10.8,1.9-14.4,5.6c-3.7,3.7-5.5,8.6-5.5,14.6c0,5.9,1.8,10.7,5.5,14.5c3.7,3.7,8.5,5.6,14.4,5.6
	c3.5,0,6.7-0.8,9.5-2.3c2.8-1.6,5-3.7,6.5-6.4l10.5,6.1c-2.6,4.5-6.3,8-11,10.6C96.4,63.4,91.2,64.7,85.6,64.7z"/>
</svg>
