<?xml version="1.0" encoding="utf-8"?>
<!-- Generator: Adobe Illustrator 26.0.1, SVG Export Plug-In . SVG Version: 6.00 Build 0)  -->
<svg version="1.1" id="Layer_1" xmlns="http://www.w3.org/2000/svg" xmlns:xlink="http://www.w3.org/1999/xlink" x="0px" y="0px"
	 viewBox="0 0 103.6 65.4" style="enable-background:new 0 0 103.6 65.4;" xml:space="preserve">
<style type="text/css">
	.st0{fill:url(#SVGID_1_);}
</style>
<linearGradient id="SVGID_1_" gradientUnits="userSpaceOnUse" x1="0" y1="32.6809" x2="102.8941" y2="32.6809">
	<stop  offset="0" style="stop-color:#30A1B8"/>
	<stop  offset="0.2302" style="stop-color:#5B96E3"/>
	<stop  offset="0.5145" style="stop-color:#A578E4"/>
	<stop  offset="0.7643" style="stop-color:#F3528E"/>
	<stop  offset="1" style="stop-color:#EC3F49"/>
</linearGradient>
<path class="st0" d="M12.3,52.4h23.8v11.8H0V1.7h12.3V52.4z M48.3,14.2c-1.9,0-3.6-0.7-5-2.1c-1.4-1.4-2.1-3.1-2.1-5
	c0-1.9,0.7-3.6,2.1-5c1.4-1.4,3.1-2.1,5-2.1c2,0,3.6,0.7,5,2.1c1.4,1.4,2.1,3.1,2.1,5c0,1.9-0.7,3.6-2.1,5
	C52,13.5,50.3,14.2,48.3,14.2z M42.6,64.2V19.6h11.5v44.7H42.6z M76.7,63.1c-1.5,1.5-3.3,2.2-5.4,2.2c-2.1,0-3.9-0.7-5.4-2.2
	c-1.5-1.5-2.2-3.3-2.2-5.4c0-2.1,0.7-3.9,2.2-5.4c1.5-1.5,3.3-2.2,5.4-2.2c2.1,0,3.9,0.7,5.4,2.2c1.5,1.5,2.2,3.3,2.2,5.4
	C79,59.9,78.2,61.7,76.7,63.1z M100.7,63.1c-1.5,1.5-3.3,2.2-5.4,2.2c-2.1,0-3.9-0.7-5.4-2.2c-1.5-1.5-2.2-3.3-2.2-5.4
	c0-2.1,0.7-3.9,2.2-5.4c1.5-1.5,3.3-2.2,5.4-2.2c2.1,0,3.9,0.7,5.4,2.2c1.5,1.5,2.2,3.3,2.2,5.4C102.9,59.9,102.1,61.7,100.7,63.1z"
	/>
</svg>
