<?xml version="1.0" encoding="utf-8"?>
<!-- Generator: Adobe Illustrator 26.0.1, SVG Export Plug-In . SVG Version: 6.00 Build 0)  -->
<svg version="1.1" id="Layer_1" xmlns="http://www.w3.org/2000/svg" xmlns:xlink="http://www.w3.org/1999/xlink" x="0px" y="0px"
	 viewBox="0 0 98.4 58.5" style="enable-background:new 0 0 98.4 58.5;" xml:space="preserve">
<style type="text/css">
	.st0{fill:url(#SVGID_1_);}
	.st1{fill:#FFFFFF;}
</style>
<g>
	<linearGradient id="SVGID_1_" gradientUnits="userSpaceOnUse" x1="0.8927" y1="30.3325" x2="97.469" y2="30.3325">
		<stop  offset="0" style="stop-color:#30A1B8"/>
		<stop  offset="0.2302" style="stop-color:#5B96E3"/>
		<stop  offset="0.5145" style="stop-color:#A578E4"/>
		<stop  offset="0.7643" style="stop-color:#F3528E"/>
		<stop  offset="1" style="stop-color:#EC3F49"/>
	</linearGradient>
	<path class="st0" d="M42.3,57.5l-3.5-10H16l-3.3,10H0.9L20.3,2.1h13.5l19.5,55.4H42.3z M19.6,37.3h15.6l-8-22.6L19.6,37.3z
		 M87.3,17.9h10.2v39.6H87.3v-4.7c-3.1,3.9-7.4,5.8-12.9,5.8c-5.3,0-9.8-2-13.6-6.1c-3.8-4-5.7-9-5.7-14.8s1.9-10.8,5.7-14.8
		c3.8-4,8.3-6.1,13.6-6.1c5.5,0,9.8,1.9,12.9,5.8V17.9z M68.4,45.7c2.1,2.1,4.7,3.1,7.8,3.1c3.2,0,5.8-1,7.9-3.1
		c2.1-2.1,3.1-4.8,3.1-8c0-3.3-1-5.9-3.1-8c-2.1-2.1-4.7-3.1-7.9-3.1c-3.2,0-5.8,1-7.8,3.1c-2.1,2.1-3.1,4.8-3.1,8
		C65.3,41,66.4,43.6,68.4,45.7z"/>
	<path class="st1" d="M59.1,9.7l0-1l0-0.5l0-2.1V6h19.7V1.9c4.9,2,9.6,3.9,14.6,6c-5,2-9.7,3.9-14.5,5.9v-4c-0.6,0-1.1-0.1-1.6-0.1
		c-5.4,0-10.7,0-16.1,0H59.1z"/>
</g>
</svg>
