<?xml version="1.0" encoding="utf-8"?>
<!-- Generator: Adobe Illustrator 26.0.1, SVG Export Plug-In . SVG Version: 6.00 Build 0)  -->
<svg version="1.1" id="Layer_1" xmlns="http://www.w3.org/2000/svg" xmlns:xlink="http://www.w3.org/1999/xlink" x="0px" y="0px"
	 viewBox="0 0 115.1 58.5" style="enable-background:new 0 0 115.1 58.5;" xml:space="preserve">
<style type="text/css">
	.st0{fill:url(#SVGID_1_);}
	.st1{fill:#FFFFFF;}
</style>
<g>
	
		<linearGradient id="SVGID_1_" gradientUnits="userSpaceOnUse" x1="0.3255" y1="29.65" x2="96.9255" y2="29.65" gradientTransform="matrix(1 0 0 -1 0 60)">
		<stop  offset="0" style="stop-color:#30A1B8"/>
		<stop  offset="0.2302" style="stop-color:#5B96E3"/>
		<stop  offset="0.5145" style="stop-color:#A578E4"/>
		<stop  offset="0.7643" style="stop-color:#F3528E"/>
		<stop  offset="1" style="stop-color:#EC3F49"/>
	</linearGradient>
	<path class="st0" d="M41.7,57.5l-3.5-10H15.4l-3.3,10H0.3L19.7,2.1h13.5l19.5,55.4H41.7z M19,37.3h15.6l-8-22.6L19,37.3z
		 M86.7,17.9h10.2v39.6H86.7v-4.7c-3.1,3.9-7.4,5.8-12.9,5.8c-5.3,0-9.8-2-13.6-6.1c-3.8-4-5.7-9-5.7-14.8s1.9-10.8,5.7-14.8
		s8.3-6.1,13.6-6.1c5.5,0,9.8,1.9,12.9,5.8V17.9z M67.8,45.7c2.1,2.1,4.7,3.1,7.8,3.1c3.2,0,5.8-1,7.9-3.1s3.1-4.8,3.1-8
		c0-3.3-1-5.9-3.1-8s-4.7-3.1-7.9-3.1c-3.2,0-5.8,1-7.8,3.1c-2.1,2.1-3.1,4.8-3.1,8C64.7,41,65.8,43.6,67.8,45.7z"/>
</g>
<circle class="st1" cx="108.4" cy="51.3" r="6.2"/>
</svg>
