<?xml version="1.0" encoding="utf-8"?>
<!-- Generator: Adobe Illustrator 26.0.1, SVG Export Plug-In . SVG Version: 6.00 Build 0)  -->
<svg version="1.1" id="Layer_1" xmlns="http://www.w3.org/2000/svg" xmlns:xlink="http://www.w3.org/1999/xlink" x="0px" y="0px"
	 viewBox="0 0 80.4 62.6" style="enable-background:new 0 0 80.4 62.6;" xml:space="preserve">
<style type="text/css">
	.st0{fill:none;}
	.st1{fill:url(#SVGID_1_);}
</style>
<line class="st0" x1="0" y1="104.5" x2="0" y2="100.8"/>
<linearGradient id="SVGID_1_" gradientUnits="userSpaceOnUse" x1="1.7501" y1="31.0195" x2="78.6185" y2="31.0195">
	<stop  offset="0" style="stop-color:#30A1B8"/>
	<stop  offset="0.2302" style="stop-color:#5B96E3"/>
	<stop  offset="0.5145" style="stop-color:#A578E4"/>
	<stop  offset="0.7643" style="stop-color:#F3528E"/>
	<stop  offset="1" style="stop-color:#EC3F49"/>
</linearGradient>
<path class="st1" d="M70.9,15.2c0-5.1,0-10.1,0-15.2c2.6,0,5.1,0,7.6,0c0,0.3,0,0.6,0,0.9c0,5.9,0,11.8,0,17.7
	c0,2.9-1.5,4.4-4.4,4.4c-22.7,0-45.4,0-68.1,0c-2.9,0-4.4-1.5-4.4-4.4c0-5.9,0-11.8,0-17.7c0-0.3,0-0.6,0-1c2.5,0,5,0,7.7,0
	c0,5.1,0,10.1,0,15.2C29.9,15.2,50.4,15.2,70.9,15.2z M40.1,49.8c1.7-4.1,3.3-7.9,4.9-11.9h-3.3v-9.8h-3v8.6c0,0.4-0.1,0.8-0.1,1.3
	h-3.3C37,41.9,38.5,45.7,40.1,49.8z M60.9,62v-9H19.5v9H60.9z"/>
</svg>
