<?xml version="1.0" encoding="utf-8"?>
<!-- Generator: Adobe Illustrator 26.0.1, SVG Export Plug-In . SVG Version: 6.00 Build 0)  -->
<svg version="1.1" id="Layer_1" xmlns="http://www.w3.org/2000/svg" xmlns:xlink="http://www.w3.org/1999/xlink" x="0px" y="0px"
	 viewBox="0 0 97.1 54.8" style="enable-background:new 0 0 97.1 54.8;" xml:space="preserve">
<style type="text/css">
	.st0{fill:url(#SVGID_1_);}
	.st1{fill:#FFFFFF;}
</style>
<linearGradient id="SVGID_1_" gradientUnits="userSpaceOnUse" x1="0.6638" y1="71.85" x2="95.7638" y2="71.85" gradientTransform="matrix(1 0 0 1 0 -44)">
	<stop  offset="0" style="stop-color:#30A1B8"/>
	<stop  offset="0.2302" style="stop-color:#5B96E3"/>
	<stop  offset="0.5145" style="stop-color:#A578E4"/>
	<stop  offset="0.7643" style="stop-color:#F3528E"/>
	<stop  offset="1" style="stop-color:#EC3F49"/>
</linearGradient>
<path class="st0" d="M31.4,16h9.7v37.8h-9.7v-4.5c-2.9,3.7-7,5.5-12.3,5.5c-5,0-9.4-1.9-13-5.8s-5.4-8.6-5.4-14.2s1.8-10.3,5.4-14.2
	s7.9-5.8,13-5.8c5.3,0,9.4,1.8,12.3,5.5V16z M13.4,42.5c2,2,4.5,3,7.5,3s5.5-1,7.5-3s3-4.5,3-7.7c0-3.1-1-5.7-3-7.7s-4.5-3-7.5-3
	s-5.5,1-7.5,3s-2.9,4.5-2.9,7.7S11.5,40.5,13.4,42.5z M85.2,53.8l-3.4-9.5H60.1l-3.2,9.5H45.7L64.2,0.9h12.9l18.7,52.9
	C95.8,53.8,85.2,53.8,85.2,53.8z M63.5,34.5h14.9l-7.6-21.6L63.5,34.5z"/>
<path class="st1" d="M7.1,8.4v-1V6.9V4.8V4.7h19.7V0.6c4.9,2,9.6,3.9,14.6,6c-5,2-9.7,3.9-14.5,5.9v-4c-0.6,0-1.1-0.1-1.6-0.1
	c-5.4,0-10.7,0-16.1,0H7.1z"/>
</svg>
